HIERARCHY
ROOT hip
{
  OFFSET 0 0 0
  CHANNELS 6 Xposition Yposition Zposition Zrotation Yrotation Xrotation
  JOINT abdomen
  {
    OFFSET 0 20.6881 -0.73152
    CHANNELS 3 Zrotation Xrotation Yrotation
    JOINT chest
    {
      OFFSET 0 11.7043 -0.48768
      CHANNELS 3 Zrotation Xrotation Yrotation
      JOINT neck
      {
        OFFSET 0 22.1894 -2.19456
        CHANNELS 3 Zrotation Xrotation Yrotation
        JOINT head
        {
          OFFSET -0.24384 7.07133 1.2192
          CHANNELS 3 Zrotation Xrotation Yrotation
          JOINT leftEye
          {
            OFFSET 4.14528 8.04674 8.04672
            CHANNELS 3 Zrotation Xrotation Yrotation
            End Site
            {
              OFFSET 1 0 0
            }
          }
          JOINT rightEye
          {
            OFFSET -3.6576 8.04674 8.04672
            CHANNELS 3 Zrotation Xrotation Yrotation
            End Site
            {
              OFFSET 1 0 0
            }
          }
        }
      }
      JOINT rCollar
      {
        OFFSET -2.68224 19.2634 -4.8768
        CHANNELS 3 Zrotation Xrotation Yrotation
        JOINT rShldr
        {
          OFFSET -8.77824 -1.95073 1.46304
          CHANNELS 3 Zrotation Xrotation Yrotation
          JOINT rForeArm
          {
            OFFSET -28.1742 -1.7115 0.48768
            CHANNELS 3 Zrotation Xrotation Yrotation
            JOINT rHand
            {
              OFFSET -22.5879 0.773209 7.07136
              CHANNELS 3 Zrotation Xrotation Yrotation
              JOINT rThumb1
              {
                OFFSET -1.2192 -0.487915 3.41376
                CHANNELS 3 Zrotation Xrotation Yrotation
                JOINT rThumb2
                {
                  OFFSET -3.37035 -0.52449 3.41376
                  CHANNELS 3 Zrotation Xrotation Yrotation
                  End Site
                  {
                    OFFSET -1.78271 -1.18214 1.43049
                  }
                }
              }
              JOINT rIndex1
              {
                OFFSET -7.75947 0.938293 5.60832
                CHANNELS 3 Zrotation Xrotation Yrotation
                JOINT rIndex2
                {
                  OFFSET -2.54057 -0.884171 1.56538
                  CHANNELS 3 Zrotation Xrotation Yrotation
                  End Site
                  {
                    OFFSET -1.62519 -0.234802 1.16502
                  }
                }
              }
              JOINT rMid1
              {
                OFFSET -8.24714 1.18213 3.41376
                CHANNELS 3 Zrotation Xrotation Yrotation
                JOINT rMid2
                {
                  OFFSET -3.10165 -0.590103 1.0647
                  CHANNELS 3 Zrotation Xrotation Yrotation
                  End Site
                  {
                    OFFSET -2.48547 -0.328903 0.83742
                  }
                }
              }
              JOINT rRing1
              {
                OFFSET -8.82822 0.546677 1.51678
                CHANNELS 3 Zrotation Xrotation Yrotation
                JOINT rRing2
                {
                  OFFSET -2.60934 -0.819778 -0.0198488
                  CHANNELS 3 Zrotation Xrotation Yrotation
                  End Site
                  {
                    OFFSET -2.33842 -0.294052 0.168128
                  }
                }
              }
              JOINT rPinky1
              {
                OFFSET -8.27202 -0.0477905 -0.4584
                CHANNELS 3 Zrotation Xrotation Yrotation
                JOINT rPinky2
                {
                  OFFSET -1.82734 -0.647385 -0.700984
                  CHANNELS 3 Zrotation Xrotation Yrotation
                  End Site
                  {
                    OFFSET -1.69225 -0.51767 -0.607171
                  }
                }
              }
            }
          }
        }
      }
      JOINT lCollar
      {
        OFFSET 2.68224 19.2634 -4.8768
        CHANNELS 3 Zrotation Xrotation Yrotation
        JOINT lShldr
        {
          OFFSET 8.77824 -1.95073 1.46304
          CHANNELS 3 Zrotation Xrotation Yrotation
          JOINT lForeArm
          {
            OFFSET 28.1742 -1.7115 0.48768
            CHANNELS 3 Zrotation Xrotation Yrotation
            JOINT lHand
            {
              OFFSET 22.5879 0.773209 7.07136
              CHANNELS 3 Zrotation Xrotation Yrotation
              JOINT lThumb1
              {
                OFFSET 1.2192 -0.487915 3.41376
                CHANNELS 3 Zrotation Xrotation Yrotation
                JOINT lThumb2
                {
                  OFFSET 3.37035 -0.52449 3.41376
                  CHANNELS 3 Zrotation Xrotation Yrotation
                  End Site
                  {
                    OFFSET 1.78271 -1.18214 1.43049
                  }
                }
              }
              JOINT lIndex1
              {
                OFFSET 7.75947 0.938293 5.60832
                CHANNELS 3 Zrotation Xrotation Yrotation
                JOINT lIndex2
                {
                  OFFSET 2.54057 -0.884171 1.56538
                  CHANNELS 3 Zrotation Xrotation Yrotation
                  End Site
                  {
                    OFFSET 1.62519 -0.234802 1.16502
                  }
                }
              }
              JOINT lMid1
              {
                OFFSET 8.24714 1.18213 3.41376
                CHANNELS 3 Zrotation Xrotation Yrotation
                JOINT lMid2
                {
                  OFFSET 3.10165 -0.590103 1.0647
                  CHANNELS 3 Zrotation Xrotation Yrotation
                  End Site
                  {
                    OFFSET 2.48547 -0.328903 0.83742
                  }
                }
              }
              JOINT lRing1
              {
                OFFSET 8.82822 0.546677 1.51678
                CHANNELS 3 Zrotation Xrotation Yrotation
                JOINT lRing2
                {
                  OFFSET 2.60934 -0.819778 -0.0198488
                  CHANNELS 3 Zrotation Xrotation Yrotation
                  End Site
                  {
                    OFFSET 2.33842 -0.294052 0.168128
                  }
                }
              }
              JOINT lPinky1
              {
                OFFSET 8.27202 -0.0477905 -0.4584
                CHANNELS 3 Zrotation Xrotation Yrotation
                JOINT lPinky2
                {
                  OFFSET 1.82734 -0.647385 -0.700984
                  CHANNELS 3 Zrotation Xrotation Yrotation
                  End Site
                  {
                    OFFSET 1.69225 -0.51767 -0.607171
                  }
                }
              }
            }
          }
        }
      }
    }
  }
  JOINT rButtock
  {
    OFFSET -8.77824 4.35084 1.2192
    CHANNELS 3 Zrotation Xrotation Yrotation
    JOINT rThigh
    {
      OFFSET 0 -1.70687 -2.19456
      CHANNELS 3 Zrotation Xrotation Yrotation
      JOINT rShin
      {
        OFFSET 0 -36.8199 0.73152
        CHANNELS 3 Zrotation Xrotation Yrotation
        JOINT rFoot
        {
          OFFSET 0.73152 -45.1104 -5.12064
          CHANNELS 3 Zrotation Xrotation Yrotation
          End Site
          {
            OFFSET -1.1221 -3.69964 12.103
          }
        }
      }
    }
  }
  JOINT lButtock
  {
    OFFSET 8.77824 4.35084 1.2192
    CHANNELS 3 Zrotation Xrotation Yrotation
    JOINT lThigh
    {
      OFFSET 0 -1.70687 -2.19456
      CHANNELS 3 Zrotation Xrotation Yrotation
      JOINT lShin
      {
        OFFSET 0 -36.8199 0.73152
        CHANNELS 3 Zrotation Xrotation Yrotation
        JOINT lFoot
        {
          OFFSET -0.73152 -45.1104 -5.12064
          CHANNELS 3 Zrotation Xrotation Yrotation
          End Site
          {
            OFFSET 1.1221 -3.69964 12.103
          }
        }
      }
    }
  }
}
MOTION
Frames:	6
Frame Time:	0.00833333
65.076 79.2982 66.7819 -2.3217 -75.0076 27.1061 -9.2457 12.1497 -3.23886 8.9229 -2.07699 -1.22083 -2.69496 18.1944 -12.0412 13.0185 -48.3796 -20.5018 -0.0 0.0 0.0 -0.0 0.0 0.0 -3.27496e-13 2.82196e-12 5.01435e-13 68.407 -28.2201 -10.1355 -26.8244 -25.7686 60.5098 -2.39044 -39.4942 -6.65167 1.35006e-09 -5.16918e-10 3.52217e-10 2.3116e-09 -1.06925e-09 6.52217e-10 1.35006e-09 -5.16921e-10 3.52203e-10 7.73091 5.47488 0.417314 1.35006e-09 -5.1692e-10 3.52217e-10 2.90554 0.965183 0.102902 1.35007e-09 -5.16916e-10 3.52212e-10 10.2786 0.731801 0.0259123 1.35006e-09 -5.16911e-10 3.52224e-10 2.22167 -0.733487 -0.20892 -3.27658e-13 2.82194e-12 5.01224e-13 -17.9764 62.5018 -73.5619 28.379 -37.3903 -79.3591 0.186791 12.2217 -1.74446 1.66462e-10 -3.45134e-09 1.80774e-09 2.92197e-10 -5.97043e-09 3.12137e-09 1.66458e-10 -3.45134e-09 1.80774e-09 -7.73091 5.47488 -0.417314 1.66462e-10 -3.45135e-09 1.80774e-09 -2.90554 0.965183 -0.102902 1.66454e-10 -3.45135e-09 1.80774e-09 -10.2786 0.731801 -0.0259123 1.66471e-10 -3.45135e-09 1.80772e-09 -2.22167 -0.733487 0.20892 -2.03217e-16 0.0 -3.88251e-19 -28.1817 -19.875 13.7015 0.0806641 16.5742 1.09119 4.49565 4.46805 -41.1675 2.03217e-16 0.0 3.88251e-19 16.8822 -54.3249 9.07257 0.324657 38.6682 -0.766011 3.58313 -10.5852 9.71284
65.0325 79.3003 66.7038 -1.8766 -75.1751 26.7583 -9.30134 12.4187 -3.73025 9.23457 -2.03891 -1.3664 -2.68988 17.9369 -13.0567 13.3429 -47.4635 -22.5625 -0.0 0.0 0.0 -0.0 0.0 0.0 -1.81526e-13 9.74853e-13 2.21313e-13 68.1253 -28.1689 -9.77883 -26.7934 -25.6712 60.3538 -2.40514 -39.5914 -6.67479 1.81481e-10 6.94523e-09 -1.43784e-09 3.51541e-10 1.19791e-08 -2.47113e-09 1.81485e-10 6.94523e-09 -1.43786e-09 7.73091 5.47488 0.417314 1.81477e-10 6.94522e-09 -1.43785e-09 2.90554 0.965183 0.102902 1.81494e-10 6.94524e-09 -1.43785e-09 10.2786 0.731801 0.0259123 1.81479e-10 6.94524e-09 -1.43784e-09 2.22167 -0.733487 -0.20892 -1.8161e-13 9.74844e-13 2.21151e-13 -19.3957 62.5119 -71.9889 28.364 -37.611 -79.7365 0.184169 12.1374 -1.73204 -1.03678e-09 -2.46164e-09 1.36502e-09 -1.78412e-09 -4.26785e-09 2.36816e-09 -1.03679e-09 -2.46164e-09 1.36502e-09 -7.73091 5.47488 -0.417314 -1.03678e-09 -2.46164e-09 1.36502e-09 -2.90554 0.965183 -0.102902 -1.03679e-09 -2.46164e-09 1.36502e-09 -10.2786 0.731801 -0.0259123 -1.03678e-09 -2.46164e-09 1.36501e-09 -2.22167 -0.733487 0.20892 -2.03217e-16 0.0 -3.88251e-19 -28.3815 -20.0171 13.5617 0.0813376 16.5914 1.09655 5.29618 5.50032 -40.6403 2.03217e-16 0.0 3.88251e-19 16.9241 -54.3811 9.19898 0.327644 38.794 -0.763744 3.60211 -10.5297 9.81464
64.974 79.2994 66.65 -1.4046 -75.3826 26.3219 -9.35132 12.6779 -4.19229 9.53987 -2.00321 -1.50297 -2.66205 17.6969 -13.9113 13.7273 -46.7057 -24.2435 -0.0 0.0 0.0 -0.0 0.0 0.0 -2.74596e-14 -9.60074e-13 -6.73402e-14 67.8493 -28.1538 -9.4338 -26.7599 -25.5669 60.188 -2.41058 -39.6286 -6.68353 -1.01873e-09 1.36472e-08 -3.02967e-09 -1.66827e-09 2.37198e-08 -5.25401e-09 -1.01873e-09 1.36472e-08 -3.02968e-09 7.73091 5.47488 0.417314 -1.01874e-09 1.36472e-08 -3.02967e-09 2.90554 0.965183 0.102902 -1.01872e-09 1.36472e-08 -3.02968e-09 10.2786 0.731801 0.0259123 -1.01873e-09 1.36472e-08 -3.02967e-09 2.22167 -0.733487 -0.20892 -2.74588e-14 -9.60066e-13 -6.74583e-14 -20.8079 62.5306 -70.4358 28.3469 -37.8328 -80.1182 0.180574 12.0206 -1.71487 -2.12206e-09 -1.39042e-09 8.50451e-10 -3.65698e-09 -2.42292e-09 1.48958e-09 -2.12207e-09 -1.39042e-09 8.50451e-10 -7.73091 5.47488 -0.417314 -2.12206e-09 -1.39043e-09 8.50451e-10 -2.90554 0.965183 -0.102902 -2.12207e-09 -1.39042e-09 8.50449e-10 -10.2786 0.731801 -0.0259123 -2.12206e-09 -1.39042e-09 8.50443e-10 -2.22167 -0.733487 0.20892 -2.03217e-16 0.0 -3.88251e-19 -28.5567 -20.1298 13.4597 0.0816409 16.6076 1.10126 5.98784 6.43991 -40.1269 2.03217e-16 0.0 3.88251e-19 16.9785 -54.4185 9.33413 0.330523 38.9193 -0.761984 3.61987 -10.4913 9.90246
64.9208 79.2966 66.5931 -1.2449 -75.5695 26.1954 -9.40019 12.8904 -4.59792 9.77777 -1.96637 -1.6236 -2.40069 17.5764 -14.5648 13.7288 -46.392 -25.6408 -0.0 0.0 0.0 -0.0 0.0 0.0 8.90287e-14 -2.18863e-12 -2.52407e-13 67.6754 -28.1703 -9.1132 -26.73 -25.475 60.0425 -2.41327 -39.6471 -6.68786 -1.82293e-09 1.74907e-08 -3.94626e-09 -3.02593e-09 3.04705e-08 -6.85991e-09 -1.82292e-09 1.74907e-08 -3.94627e-09 7.73091 5.47488 0.417314 -1.82293e-09 1.74907e-08 -3.94626e-09 2.90554 0.965183 0.102902 -1.82291e-09 1.74908e-08 -3.94626e-09 10.2786 0.731801 0.0259123 -1.82293e-09 1.74907e-08 -3.94625e-09 2.22167 -0.733487 -0.20892 8.90881e-14 -2.18861e-12 -2.52506e-13 -22.0442 62.5631 -68.9976 28.328 -38.0514 -80.4958 0.177002 11.9036 -1.69768 -2.73988e-09 -8.10531e-10 5.42711e-10 -4.72261e-09 -1.42337e-09 9.63434e-10 -2.73989e-09 -8.10534e-10 5.42711e-10 -7.73091 5.47488 -0.417314 -2.73988e-09 -8.10539e-10 5.42711e-10 -2.90554 0.965183 -0.102902 -2.73989e-09 -8.10532e-10 5.42709e-10 -10.2786 0.731801 -0.0259123 -2.73988e-09 -8.10531e-10 5.42704e-10 -2.22167 -0.733487 0.20892 -2.03217e-16 0.0 -3.88251e-19 -28.6972 -20.2134 13.4067 0.0812939 16.6065 1.1022 6.27534 6.87801 -39.7677 2.03217e-16 0.0 3.88251e-19 17.0445 -54.4233 9.47424 0.33224 38.986 -0.759722 3.63633 -10.4461 9.99068
64.8752 79.2973 66.5199 -1.2081 -75.7488 26.2338 -9.4591 13.0472 -4.95272 9.93172 -1.92388 -1.7307 -1.71045 17.6398 -14.9331 12.9406 -46.8333 -26.7636 -0.0 0.0 0.0 -0.0 0.0 0.0 1.52988e-13 -2.23695e-12 -2.77309e-13 67.6442 -28.2294 -8.80751 -26.7045 -25.3971 59.9181 -2.41144 -39.6351 -6.685 -2.04606e-09 1.75305e-08 -3.94429e-09 -3.41016e-09 3.05698e-08 -6.86287e-09 -2.04606e-09 1.75305e-08 -3.9443e-09 7.73091 5.47488 0.417314 -2.04606e-09 1.75305e-08 -3.94429e-09 2.90554 0.965183 0.102902 -2.04605e-09 1.75305e-08 -3.9443e-09 10.2786 0.731801 0.0259123 -2.04606e-09 1.75305e-08 -3.94428e-09 2.22167 -0.733487 -0.20892 1.53069e-13 -2.23693e-12 -2.77432e-13 -23.109 62.6271 -67.634 28.3073 -38.2755 -80.8817 0.1735 11.7879 -1.68069 -2.73725e-09 -1.17075e-09 6.43253e-10 -4.71621e-09 -2.04373e-09 1.13593e-09 -2.73725e-09 -1.17075e-09 6.43255e-10 -7.73091 5.47488 -0.417314 -2.73725e-09 -1.17075e-09 6.43254e-10 -2.90554 0.965183 -0.102902 -2.73726e-09 -1.17075e-09 6.43252e-10 -10.2786 0.731801 -0.0259123 -2.73725e-09 -1.17074e-09 6.43248e-10 -2.22167 -0.733487 0.20892 -2.03217e-16 0.0 -3.88251e-19 -28.7907 -20.249 13.4371 0.0798636 16.5856 1.09747 5.96812 6.53903 -39.6185 2.03217e-16 0.0 3.88251e-19 17.1211 -54.3802 9.62092 0.332467 38.9764 -0.756745 3.64896 -10.3842 10.0766
64.8 79.3009 66.4499 -0.9671 -75.9855 26.0001 -9.5244 13.1682 -5.26639 10.0343 -1.8788 -1.82655 -0.745044 17.8225 -15.064 11.6169 -47.8107 -27.6337 -0.0 0.0 0.0 -0.0 0.0 0.0 1.89702e-13 -1.61597e-12 -2.10737e-13 67.7005 -28.3297 -8.51363 -26.6805 -25.3241 59.801 -2.40279 -39.5782 -6.67142 -1.93989e-09 1.50141e-08 -3.31689e-09 -3.24557e-09 2.62083e-08 -5.77667e-09 -1.93988e-09 1.50141e-08 -3.3169e-09 7.73091 5.47488 0.417314 -1.93989e-09 1.50141e-08 -3.31689e-09 2.90554 0.965183 0.102902 -1.93988e-09 1.50141e-08 -3.31689e-09 10.2786 0.731801 0.0259123 -1.93989e-09 1.50141e-08 -3.31688e-09 2.22167 -0.733487 -0.20892 1.89784e-13 -1.61596e-12 -2.10911e-13 -24.0828 62.7183 -66.309 28.2843 -38.5041 -81.2759 0.16965 11.6587 -1.66175 -2.32049e-09 -2.06688e-09 9.61072e-10 -3.99439e-09 -3.58683e-09 1.67932e-09 -2.32049e-09 -2.06688e-09 9.61076e-10 -7.73091 5.47488 -0.417314 -2.32049e-09 -2.06688e-09 9.61073e-10 -2.90554 0.965183 -0.102902 -2.3205e-09 -2.06688e-09 9.61071e-10 -10.2786 0.731801 -0.0259123 -2.32049e-09 -2.06688e-09 9.61066e-10 -2.22167 -0.733487 0.20892 -2.03217e-16 0.0 -3.88251e-19 -28.8456 -20.2426 13.5347 0.077612 16.553 1.08908 5.2707 5.68901 -39.6003 2.03217e-16 0.0 3.88251e-19 17.2082 -54.3004 9.77467 0.331796 38.9222 -0.75358 3.65865 -10.3196 10.1547
